<?xml version="1.0" encoding="iso-8859-1"?>
<!-- Generator: Adobe Illustrator 20.0.0, SVG Export Plug-In . SVG Version: 6.00 Build 0)  -->
<svg version="1.1" id="Calque_1" xmlns="http://www.w3.org/2000/svg" xmlns:xlink="http://www.w3.org/1999/xlink" x="0px" y="0px"
	 viewBox="0 0 200 200" style="enable-background:new 0 0 200 200;" xml:space="preserve">
<g>
	<rect x="5" y="5" style="fill:none;stroke:#252936;stroke-width:3.8;stroke-miterlimit:10;" width="190" height="190"/>
	<g>
		<g>
			<path style="fill:#252936;" d="M44.046,159.243c-0.853,0-1.696-0.334-2.326-0.964c-0.974-0.974-1.239-2.452-0.661-3.704
				l2.912-6.315c1.691-3.665,2.205-7.703,1.488-11.677c-0.136-0.637-3.858-18.272-3.858-36.585c0-18.31,3.722-35.945,3.879-36.686
				c0.697-3.871,0.182-7.909-1.509-11.573l-2.912-6.316c-0.578-1.252-0.314-2.73,0.661-3.704c0.974-0.977,2.46-1.238,3.704-0.661
				l6.315,2.915c3.668,1.691,7.711,2.205,11.674,1.487c0.64-0.139,18.274-3.859,36.588-3.859c18.31,0,35.945,3.72,36.685,3.879
				c3.876,0.695,7.906,0.185,11.574-1.507l6.318-2.915c1.249-0.571,2.73-0.315,3.704,0.662c0.974,0.974,1.239,2.453,0.661,3.705
				l-2.915,6.315c-1.691,3.665-2.205,7.702-1.486,11.674c0.136,0.641,3.855,18.274,3.855,36.585c0,18.313-3.719,35.948-3.876,36.688
				c-0.699,3.871-0.185,7.909,1.506,11.571l2.915,6.318c0.578,1.249,0.314,2.73-0.661,3.704c-0.977,0.974-2.455,1.241-3.704,0.661
				l-6.318-2.912c-3.665-1.691-7.703-2.205-11.677-1.488c-0.637,0.136-18.272,3.858-36.582,3.858
				c-18.313,0-35.948-3.722-36.688-3.879c-3.871-0.697-7.909-0.185-11.571,1.509l-6.318,2.912
				C44.981,159.145,44.513,159.243,44.046,159.243z M59.909,147.644c1.555,0,3.118,0.139,4.673,0.419
				c0.278,0.059,17.82,3.755,35.418,3.755c17.596,0,35.138-3.696,35.313-3.735c4.809-0.861,9.6-0.422,14.039,1.27
				c-1.694-4.441-2.141-9.222-1.288-13.938c0.059-0.275,3.753-17.817,3.753-35.415c0-17.624-3.693-35.138-3.732-35.313
				c-0.871-4.803-0.427-9.595,1.267-14.039c-4.439,1.694-9.219,2.142-13.938,1.288c-0.275-0.057-17.817-3.754-35.413-3.754
				c-17.627,0-35.14,3.696-35.315,3.735c-4.806,0.866-9.6,0.423-14.039-1.268c1.694,4.44,2.141,9.222,1.29,13.936
				c-0.059,0.279-3.755,17.82-3.755,35.415c0,17.627,3.696,35.14,3.735,35.315c0.869,4.806,0.422,9.597-1.27,14.039
				C53.62,148.219,56.75,147.644,59.909,147.644z"/>
		</g>
		<g>
			<path style="fill:#252936;" d="M115.887,140.899h-9.641c-1.455,0-2.632-1.177-2.632-2.632s1.177-2.632,2.632-2.632h9.641
				c10.89,0,19.75-8.86,19.75-19.75v-9.638c0-1.455,1.177-2.632,2.632-2.632s2.632,1.177,2.632,2.632v9.638
				C140.9,129.678,129.679,140.899,115.887,140.899z"/>
		</g>
	</g>
</g>
<g>
</g>
<g>
</g>
<g>
</g>
<g>
</g>
<g>
</g>
<g>
</g>
<g>
</g>
<g>
</g>
<g>
</g>
<g>
</g>
<g>
</g>
<g>
</g>
<g>
</g>
<g>
</g>
<g>
</g>
</svg>
