<?xml version="1.0" encoding="iso-8859-1"?>
<!-- Generator: Adobe Illustrator 20.0.0, SVG Export Plug-In . SVG Version: 6.00 Build 0)  -->
<svg version="1.1" id="Calque_1" xmlns="http://www.w3.org/2000/svg" xmlns:xlink="http://www.w3.org/1999/xlink" x="0px" y="0px"
	 viewBox="0 0 200 200" style="enable-background:new 0 0 200 200;" xml:space="preserve">
<g>
	<rect x="5" y="5" style="fill:none;stroke:#252936;stroke-width:3.8;stroke-miterlimit:10;" width="190" height="190"/>
	<path style="fill:#252936;" d="M109.75,88.837c0,3.078,2.495,5.575,5.575,5.575c3.08,0,5.573-2.497,5.573-5.575
		c0-3.076-2.493-5.575-5.573-5.575C112.245,83.262,109.75,85.76,109.75,88.837 M60.627,120.682l28.249-22.34l12.774,12.793
		l-4.064,4.066l3.941,3.946l4.06-4.07l0.042,0.042v-0.08l9.707-9.724l24.027,18.113v10.047H60.627V120.682z M60.627,79.078h78.736
		v36.459l-23.976-17.906l-9.8,9.557L88.888,91.251l-28.261,21.542V79.078z M57.842,136.264h84.309V76.287H57.842V136.264z
		 M55.056,73.5h89.879v65.554H55.056V73.5z M99.993,62.696l5.812,5.223H94.181L99.993,62.696z M86.304,67.919H49.412l0.072,5.58
		v71.208l5.573-0.074h95.532l-0.082-5.58V73.5l0.072-5.58h-36.896L99.978,55.292L86.304,67.919z"/>
</g>
<g>
</g>
<g>
</g>
<g>
</g>
<g>
</g>
<g>
</g>
<g>
</g>
<g>
</g>
<g>
</g>
<g>
</g>
<g>
</g>
<g>
</g>
<g>
</g>
<g>
</g>
<g>
</g>
<g>
</g>
</svg>
