<?xml version="1.0" encoding="iso-8859-1"?>
<!-- Generator: Adobe Illustrator 20.0.0, SVG Export Plug-In . SVG Version: 6.00 Build 0)  -->
<svg version="1.1" id="Calque_1" xmlns="http://www.w3.org/2000/svg" xmlns:xlink="http://www.w3.org/1999/xlink" x="0px" y="0px"
	 viewBox="0 0 200 200" style="enable-background:new 0 0 200 200;" xml:space="preserve">
<g>
	<path style="fill:#252936;" d="M96.679,77.915v48.71h0.072v0.302h6.798V78.219h-0.066v-0.304H96.679z M100.152,72.74
		c0.65-1.433,6.025-11.913,24.086-11.902c14.793,0.01,20.904,9.945,20.904,9.945s0,57.999-0.008,57.766c0,1.265,0.04,5.32,0.04,5.32
		s-5.706-4.953-22.146-4.953c-16.106-0.851-22.946,8.43-22.946,8.43v0.218c-0.79-0.923-8.267-9.152-23.45-8.347
		c-14.953,0-21.632,5.271-21.632,5.271s-0.144-5.062-0.144-6.85c-0.008,0.234-0.008-56.553-0.008-56.553s5.804-9.935,20.575-9.945
		C94.783,61.127,100.152,72.74,100.152,72.74L100.152,72.74z M100.082,64.556v0.211c-0.758-0.967-7.727-9.247-24.658-9.247
		c-17.978,0-25.859,13.663-25.859,13.663v70.477c0,13.878,0.038-5.124,27.067-5.124c17.237,0,23.52,10.247,23.52,10.247l0,0
		c0.697-1.142,6.707-10.551,22.876-10.551c27.067,0,27.407,19.004,27.407,5.124V68.883c0,0-8.195-13.665-26.197-13.665
		C106.23,55.218,100.082,64.556,100.082,64.556"/>
	<rect x="5" y="5" style="fill:none;stroke:#252936;stroke-width:3.8;stroke-miterlimit:10;" width="190" height="190"/>
</g>
<g>
</g>
<g>
</g>
<g>
</g>
<g>
</g>
<g>
</g>
<g>
</g>
<g>
</g>
<g>
</g>
<g>
</g>
<g>
</g>
<g>
</g>
<g>
</g>
<g>
</g>
<g>
</g>
<g>
</g>
</svg>
