<?xml version="1.0" encoding="iso-8859-1"?>
<!-- Generator: Adobe Illustrator 20.0.0, SVG Export Plug-In . SVG Version: 6.00 Build 0)  -->
<svg version="1.1" id="Calque_1" xmlns="http://www.w3.org/2000/svg" xmlns:xlink="http://www.w3.org/1999/xlink" x="0px" y="0px"
	 viewBox="0 0 200 200" style="enable-background:new 0 0 200 200;" xml:space="preserve">
<g>
	<rect x="5" y="5" style="fill:none;stroke:#00FF00;stroke-width:7.6;stroke-miterlimit:10;" width="190" height="190"/>
	<path style="fill:#252936;" d="M127.978,105.501l0.021-26.317c2.24,0.008,4.509,0,5.124,0c5.823,0,10.241,7.315,10.241,13.146
		s-4.418,13.235-10.241,13.235C132.657,105.565,130.229,105.525,127.978,105.501 M71.92,129.359l-0.006-68.9h0.006l50.998,0.015
		l-0.066,68.885c0,5.616-4.492,10.182-10.114,10.182H82.112C76.491,139.541,71.92,134.975,71.92,129.359 M66.824,60.459v68.9
		c0,8.434,6.846,15.272,15.287,15.272h30.626c8.444,0,15.208-6.838,15.208-15.272l0.027-18.772c2.255,0.008,4.685-0.006,5.151-0.006
		c8.425,0,15.253-9.737,15.253-18.173c0-8.434-6.829-18.322-15.253-18.322c-0.612,0-2.879,0.011-5.117,0.004l0.008-13.617
		l-0.038-5.092l-61.113-0.011L66.824,60.459z"/>
</g>
<g>
</g>
<g>
</g>
<g>
</g>
<g>
</g>
<g>
</g>
<g>
</g>
<g>
</g>
<g>
</g>
<g>
</g>
<g>
</g>
<g>
</g>
<g>
</g>
<g>
</g>
<g>
</g>
<g>
</g>
</svg>
