<?xml version="1.0" encoding="iso-8859-1"?>
<!-- Generator: Adobe Illustrator 20.0.0, SVG Export Plug-In . SVG Version: 6.00 Build 0)  -->
<svg version="1.1" id="Calque_1" xmlns="http://www.w3.org/2000/svg" xmlns:xlink="http://www.w3.org/1999/xlink" x="0px" y="0px"
	 viewBox="0 0 200 200" style="enable-background:new 0 0 200 200;" xml:space="preserve">
<g>
	<rect x="5" y="5" style="fill:none;stroke:#252936;stroke-width:3.8;stroke-miterlimit:10;" width="190" height="190"/>
	<g>
		<g>
			<path style="fill:#252936;" d="M144.955,156.551H60.252c-2.639,0-5.122-1.029-6.989-2.897l-6.885-6.885
				c-1.866-1.867-2.894-4.347-2.894-6.988v-11.853h6.048v11.853c0,1.01,0.409,1.998,1.122,2.711l6.887,6.886
				c0.725,0.724,1.687,1.123,2.71,1.123h84.703c3.06,0,5.548-2.489,5.548-5.549V60.252c0-1.01-0.409-1.998-1.122-2.711l-6.885-6.886
				c-0.725-0.724-1.689-1.123-2.712-1.123H127.93v-6.048h11.853c2.639,0,5.12,1.028,6.989,2.894l6.885,6.887
				c1.866,1.866,2.894,4.347,2.894,6.988v84.702C156.551,151.349,151.349,156.551,144.955,156.551z"/>
		</g>
		<g>
			<path style="fill:#252936;" d="M142.829,145.852H49.915c-3.565,0-6.467-2.9-6.467-6.465V49.914c0-3.565,2.901-6.465,6.467-6.465
				h89.474c3.565,0,6.464,2.9,6.464,6.465v92.914C145.853,144.498,144.499,145.852,142.829,145.852z M49.915,49.497
				c-0.232,0-0.418,0.187-0.418,0.417v89.472c0,0.23,0.187,0.417,0.418,0.417h89.889V49.914c0-0.23-0.187-0.417-0.416-0.417H49.915z
				"/>
		</g>
		<g>
			<path style="fill:#252936;" d="M46.679,119.886c-0.775,0-1.548-0.295-2.138-0.886c-1.181-1.181-1.181-3.095,0-4.276
				l31.357-31.357c1.181-1.181,3.095-1.181,4.276,0l23.712,23.712c1.181,1.181,1.181,3.095,0,4.276
				c-1.181,1.181-3.095,1.181-4.276,0L78.036,89.782L48.817,119C48.226,119.591,47.454,119.886,46.679,119.886z"/>
		</g>
		<g>
			<path style="fill:#252936;" d="M104.687,78.257c0,4.001,3.244,7.248,7.248,7.248s7.248-3.247,7.248-7.248
				c0-3.999-3.244-7.245-7.248-7.245S104.687,74.258,104.687,78.257"/>
		</g>
		<g>
			<path style="fill:#252936;" d="M142.486,125.585c-0.619,0-1.238-0.236-1.711-0.709l-24.602-24.602l-19.137,19.137
				c-0.945,0.945-2.476,0.945-3.421,0c-0.945-0.945-0.945-2.476,0-3.421l20.848-20.848c0.945-0.945,2.476-0.945,3.421,0
				l26.313,26.313c0.945,0.945,0.945,2.476,0,3.421C143.724,125.349,143.105,125.585,142.486,125.585z"/>
		</g>
	</g>
</g>
<g>
</g>
<g>
</g>
<g>
</g>
<g>
</g>
<g>
</g>
<g>
</g>
<g>
</g>
<g>
</g>
<g>
</g>
<g>
</g>
<g>
</g>
<g>
</g>
<g>
</g>
<g>
</g>
<g>
</g>
</svg>
