<?xml version="1.0" encoding="iso-8859-1"?>
<!-- Generator: Adobe Illustrator 20.0.0, SVG Export Plug-In . SVG Version: 6.00 Build 0)  -->
<svg version="1.1" id="Calque_1" xmlns="http://www.w3.org/2000/svg" xmlns:xlink="http://www.w3.org/1999/xlink" x="0px" y="0px"
	 viewBox="0 0 200 200" style="enable-background:new 0 0 200 200;" xml:space="preserve">
<g>
	<rect x="5.114" y="5.017" style="fill:none;stroke:#252936;stroke-width:3.8;stroke-miterlimit:10;" width="190" height="190"/>
	<path style="fill:#252936;" d="M129.117,116.225l6.576,3.209l-36.032,19.399l-35.61-19.374l6.952-3.143l-5.993-3.262l-12.791,6.26
		l46.092,25.169l1.341,0.638l1.33-0.635l42.093-22.661l4.448-2.499l-4.509-2.468l-7.887-3.872L129.117,116.225z M52.221,99.693
		l46.092,25.169l1.341,0.64l1.33-0.635l42.093-22.663l4.448-2.5l-4.509-2.466l-8.328-4.222l-6.008,3.238l7.013,3.559l-36.032,19.399
		l-35.61-19.376l7.48-3.754l-5.995-3.262L52.221,99.693z M64.535,79.242l36.032-18.094l35.608,18.069l-36.03,19.399L64.535,79.242z
		 M53.002,79.095l45.792,25.171l1.343,0.64l1.332-0.635l46.539-25.16l-47.32-24.2L53.002,79.095z"/>
</g>
<g>
</g>
<g>
</g>
<g>
</g>
<g>
</g>
<g>
</g>
<g>
</g>
<g>
</g>
<g>
</g>
<g>
</g>
<g>
</g>
<g>
</g>
<g>
</g>
<g>
</g>
<g>
</g>
<g>
</g>
</svg>
