<?xml version="1.0" encoding="iso-8859-1"?>
<!-- Generator: Adobe Illustrator 20.0.0, SVG Export Plug-In . SVG Version: 6.00 Build 0)  -->
<svg version="1.1" id="Calque_1" xmlns="http://www.w3.org/2000/svg" xmlns:xlink="http://www.w3.org/1999/xlink" x="0px" y="0px"
	 viewBox="0 0 200 200" style="enable-background:new 0 0 200 200;" xml:space="preserve">
<g>
	<rect x="5.236" y="6.184" style="fill:none;stroke:#252936;stroke-width:3.8;stroke-miterlimit:10;" width="190" height="190"/>
	<path style="fill:#252936;" d="M69.033,131.275h11.238v-10.051H69.033V131.275z M85.872,131.275h11.239v-10.051H85.872V131.275z
		 M102.708,131.275h11.238v-10.051h-11.238V131.275z M119.544,131.275h11.239v-10.051h-11.239V131.275z M69.033,115.096h11.238
		v-10.053H69.033V115.096z M85.872,115.096h11.239v-10.053H85.872V115.096z M102.708,115.096h11.238v-10.053h-11.238V115.096z
		 M119.544,115.096h11.239v-10.053h-11.239V115.096z M85.872,98.283h11.239V88.23H85.872V98.283z M102.708,98.283h11.238V88.23
		h-11.238V98.283z M119.544,98.283h11.239V88.23h-11.239V98.283z M130.57,76.133v-5.998h14.634v70.121H55.269V70.135H72.88v5.998
		h5.616v-5.998h20.419v5.998h5.618v-5.998h20.419v5.998H130.57z M124.953,56.4v8.124h-20.419V56.4h-5.618v8.124H78.496V56.4H72.88
		v8.124l-23.23-0.101v81.544l5.618-0.103h89.935l5.618-0.217V64.423l-20.252,0.101V56.4H124.953z"/>
</g>
<g>
</g>
<g>
</g>
<g>
</g>
<g>
</g>
<g>
</g>
<g>
</g>
<g>
</g>
<g>
</g>
<g>
</g>
<g>
</g>
<g>
</g>
<g>
</g>
<g>
</g>
<g>
</g>
<g>
</g>
</svg>
