<?xml version="1.0" encoding="iso-8859-1"?>
<!-- Generator: Adobe Illustrator 20.0.0, SVG Export Plug-In . SVG Version: 6.00 Build 0)  -->
<svg version="1.1" id="Calque_1" xmlns="http://www.w3.org/2000/svg" xmlns:xlink="http://www.w3.org/1999/xlink" x="0px" y="0px"
	 viewBox="0 0 200 200" style="enable-background:new 0 0 200 200;" xml:space="preserve">
<g>
	<path style="fill:#252936;" d="M97.427,108.781c0.629-0.507,1.376-0.771,2.16-0.771c0.8,0,1.596,0.277,2.132,0.694l39.144,30.225
		H59.61L97.427,108.781z M124.268,119.111l20.744-16.226v32.262L124.268,119.111z M54.981,102.45l20.89,16.42l-20.89,16.665V102.45z
		 M56.045,96.228l2.271-2.238h0.125l10.636-8.231v20.712L56.045,96.228z M130.622,85.399l13.498,11.138l-13.498,10.558V85.399z
		 M74.637,110.839V72.099h50.426v39.345l-5.326,4.165l-14.47-11.185c-3.274-2.565-7.974-2.675-11.44,0.12l-13.498,10.769
		L74.637,110.839z M98.054,61.807c0.526-0.524,1.224-0.815,1.965-0.815c0.745,0,1.442,0.291,1.968,0.815l8.375,5.301H89.688
		L98.054,61.807z M94.123,57.874l-13.562,9.234H69.077v11.077L51.93,92.64c-1.507,0.996-2.508,2.702-2.508,4.634l-0.004,47.211
		h5.563h90.031h5.259l0.298-47.044c0.023-0.251,0.013-0.502-0.03-0.749c-0.108-1.007-0.498-1.929-1.074-2.704h0.015l-0.076-0.076
		c-0.285-0.374-0.621-0.705-0.992-0.997l-17.792-15.179V67.108h-10.995l-13.708-9.234c-1.575-1.573-3.736-2.36-5.9-2.36
		C97.858,55.514,95.698,56.301,94.123,57.874"/>
	<rect x="5" y="5" style="fill:none;stroke:#252936;stroke-width:3.8;stroke-miterlimit:10;" width="190" height="190"/>
</g>
<g>
</g>
<g>
</g>
<g>
</g>
<g>
</g>
<g>
</g>
<g>
</g>
<g>
</g>
<g>
</g>
<g>
</g>
<g>
</g>
<g>
</g>
<g>
</g>
<g>
</g>
<g>
</g>
<g>
</g>
</svg>
