<svg xmlns="http://www.w3.org/2000/svg" width="144" height="68"><path fill="#A2C14B" d="M127.18 31.06c.31.93-.03 1.94-.84 2.51l-.04.03c-.72.51-2.61 1.86-3.43 2.44-.36.25-.51.69-.37 1.1.01.03 1.08 3.25 1.33 3.99.3.93-.03 1.94-.84 2.51a2.338 2.338 0 0 1-2.7 0c-.14-.1-.33-.23-.56-.39-.85-.6-2.26-1.6-2.92-2.07-.18-.13-.39-.2-.6-.2-.21 0-.42.07-.59.2-.71.5-2.27 1.6-3.1 2.19l-.38.27c-.4.27-.88.43-1.36.43-.49 0-.95-.15-1.35-.43-.8-.57-1.14-1.58-.83-2.51.05-.15.11-.35.2-.6.32-.98.86-2.62 1.13-3.39.13-.4-.02-.85-.37-1.1a464.562 464.562 0 0 1-3.48-2.47 2.22 2.22 0 0 1-.84-2.51c.31-.92 1.19-1.54 2.19-1.55h4.31c.43 0 .82-.27.95-.68.32-.96 1.09-3.26 1.34-3.99.31-.93 1.19-1.55 2.18-1.55 1 0 1.88.62 2.19 1.55.16.49 1 2.97 1.33 3.99.13.41.52.68.96.68h4.3c1 .01 1.88.63 2.19 1.55zm0 0"/><path fill="#968D93" d="M137.01 34.88l5.12-6.64c.4-.53.48-1.16.21-1.69s-.84-.85-1.51-.85h-.33c-.76 0-1.62.41-2.08 1.01l-3.86 5.01-3.85-5.01c-.47-.6-1.32-1.01-2.09-1.01h-.33c-.67 0-1.23.32-1.5.85-.28.53-.2 1.16.21 1.69l5.12 6.64-5.12 6.65c-.41.52-.49 1.15-.21 1.69.27.53.83.85 1.5.85h.33c.77 0 1.62-.42 2.09-1.02l3.85-5 3.86 5c.46.6 1.32 1.02 2.08 1.02h.33c.67 0 1.24-.32 1.51-.85.27-.54.19-1.17-.21-1.69l-5.12-6.65zM28.73 25.7c-2.01 0-3.08.78-3.08.78v-6.63c0-1.01-.84-1.84-1.87-1.84h-.04c-1.03 0-1.88.83-1.88 1.84v22.39c0 1 .85 1.83 1.88 1.83h.04c1.03 0 1.87-.83 1.87-1.83v-11.1s.87-1.63 3.08-1.63c1.78 0 3.08 1.58 3.08 3.45v9.28c0 1 .85 1.83 1.88 1.83h.04c1.03 0 1.88-.83 1.88-1.83v-9.68c0-5.99-4.87-6.86-6.88-6.86zM11.19 40.27c-3.05 0-5.53-2.41-5.53-5.39 0-2.97 2.48-5.39 5.53-5.39 3.04 0 5.53 2.42 5.53 5.39 0 2.98-2.49 5.39-5.53 5.39zm0-14.57c-2.2 0-4.22.73-5.82 1.97-.34-.42-.87-.69-1.45-.69h-.04c-1.03 0-1.88.83-1.88 1.84v18.44c0 1.01.85 1.83 1.88 1.83h.04c1.03 0 1.87-.82 1.87-1.83v-5.32c1.45 1.32 3.11 2.13 5.4 2.13 5.19 0 9.41-4.12 9.41-9.19 0-5.06-4.22-9.18-9.41-9.18zm83.66 14.57c-3.04 0-5.52-2.42-5.52-5.39 0-2.97 2.48-5.39 5.52-5.39 3.05 0 5.53 2.42 5.53 5.39 0 2.97-2.48 5.39-5.53 5.39zm0-14.57c-2 0-3.86.61-5.39 1.66v-7.53c0-1.01-.84-1.83-1.88-1.83h-.03c-1.04 0-1.88.82-1.88 1.83v22.41c0 1 .84 1.83 1.88 1.83h.03c.98 0 1.79-.74 1.87-1.68a9.537 9.537 0 0 0 5.4 1.67c5.2 0 9.42-4.12 9.42-9.18 0-5.07-4.22-9.18-9.42-9.18zm-48.54 3.79c-3.05 0-5.53 2.42-5.53 5.39 0 2.98 2.48 5.39 5.53 5.39 3.04 0 5.52-2.41 5.52-5.39 0-2.97-2.48-5.39-5.52-5.39zm0 14.58c-5.2 0-9.42-4.12-9.42-9.19 0-5.06 4.22-9.18 9.42-9.18 5.19 0 9.41 4.12 9.41 9.18 0 5.07-4.22 9.19-9.41 9.19zm28.66-14.58c-3.05 0-5.53 2.42-5.53 5.39 0 2.98 2.48 5.4 5.53 5.4 3.05 0 5.53-2.42 5.53-5.4 0-2.97-2.48-5.39-5.53-5.39zm0 14.58c-5.19 0-9.41-4.12-9.41-9.19 0-5.06 4.22-9.18 9.41-9.18s9.41 4.12 9.41 9.18c0 5.07-4.22 9.19-9.41 9.19zM63.63 27h-1.09v-4.23c0-1.01-.84-1.83-1.87-1.83h-.04c-1.03 0-1.88.82-1.88 1.83V27h-1.11c-1.03 0-1.88.82-1.88 1.83v.04c0 1 .85 1.83 1.88 1.83h1.11v8.87c0 1.3.27 2.84 1.18 3.71.6.57 2.43 1.22 3.56.05 1-1.04.4-2.52-.54-2.75-.28-.07-.38-.61-.41-1.2V30.7h1.09c1.04 0 1.88-.83 1.88-1.83v-.04c0-1.01-.84-1.83-1.88-1.83zm0 0"/></svg>