<?xml version="1.0" encoding="utf-8"?>
<!-- Generator: Adobe Illustrator 20.0.0, SVG Export Plug-In . SVG Version: 6.00 Build 0)  -->
<svg version="1.1" xmlns="http://www.w3.org/2000/svg" xmlns:xlink="http://www.w3.org/1999/xlink" x="0px" y="0px"
	 viewBox="0 0 144 68" style="enable-background:new 0 0 144 68;" xml:space="preserve">
<style type="text/css">
	.st0{fill:#968D93;}
	.st1{fill:#E5AB6F;stroke:#000000;stroke-width:0.4;stroke-linecap:round;stroke-linejoin:round;stroke-miterlimit:10;}
	.st2{fill:#02FF00;stroke:#000000;stroke-width:0.4;stroke-linecap:round;stroke-linejoin:round;stroke-miterlimit:10;}
	.st3{fill:#FFFFFF;stroke:#000000;stroke-width:0.4;stroke-linecap:round;stroke-linejoin:round;stroke-miterlimit:10;}
	.st4{fill:none;stroke:#000000;stroke-width:0.5;stroke-linecap:round;stroke-linejoin:round;stroke-miterlimit:10;}
	.st5{fill:#E16868;stroke:#000000;stroke-width:0.4;stroke-linecap:round;stroke-linejoin:round;stroke-miterlimit:10;}
	.st6{fill:#FFFFFF;}
	.st7{opacity:0.69;fill:#B48352;}
	.st8{opacity:0.26;}
</style>
<g id="Calque_1">
	<path class="st0" d="M137,34.9l5.1-6.6c0.4-0.5,0.5-1.2,0.2-1.7s-0.8-0.9-1.5-0.9h-0.3c-0.8,0-1.6,0.4-2.1,1l-3.9,5l-3.9-5
		c-0.5-0.6-1.3-1-2.1-1h-0.3c-0.7,0-1.2,0.3-1.5,0.9c-0.3,0.5-0.2,1.2,0.2,1.7l5.1,6.6l-5.1,6.7c-0.4,0.5-0.5,1.2-0.2,1.7
		c0.3,0.5,0.8,0.8,1.5,0.8h0.3c0.8,0,1.6-0.4,2.1-1l3.9-5l3.9,5c0.5,0.6,1.3,1,2.1,1h0.3c0.7,0,1.2-0.3,1.5-0.8
		c0.3-0.5,0.2-1.2-0.2-1.7L137,34.9z M28.7,25.7c-2,0-3.1,0.8-3.1,0.8v-6.6c0-1-0.8-1.8-1.9-1.8h0c-1,0-1.9,0.8-1.9,1.8v22.4
		c0,1,0.9,1.8,1.9,1.8h0c1,0,1.9-0.8,1.9-1.8V31.1c0,0,0.9-1.6,3.1-1.6c1.8,0,3.1,1.6,3.1,3.5v9.3c0,1,0.9,1.8,1.9,1.8h0
		c1,0,1.9-0.8,1.9-1.8v-9.7C35.6,26.6,30.7,25.7,28.7,25.7z M11.2,40.3c-3.1,0-5.5-2.4-5.5-5.4c0-3,2.5-5.4,5.5-5.4
		c3,0,5.5,2.4,5.5,5.4C16.7,37.9,14.2,40.3,11.2,40.3z M11.2,25.7c-2.2,0-4.2,0.7-5.8,2C5,27.2,4.5,27,3.9,27h0
		c-1,0-1.9,0.8-1.9,1.8v18.4c0,1,0.9,1.8,1.9,1.8h0c1,0,1.9-0.8,1.9-1.8v-5.3c1.5,1.3,3.1,2.1,5.4,2.1c5.2,0,9.4-4.1,9.4-9.2
		C20.6,29.8,16.4,25.7,11.2,25.7z M94.9,40.3c-3,0-5.5-2.4-5.5-5.4s2.5-5.4,5.5-5.4c3.1,0,5.5,2.4,5.5,5.4S97.9,40.3,94.9,40.3z
		 M94.9,25.7c-2,0-3.9,0.6-5.4,1.7v-7.5c0-1-0.8-1.8-1.9-1.8h0c-1,0-1.9,0.8-1.9,1.8v22.4c0,1,0.8,1.8,1.9,1.8h0
		c1,0,1.8-0.7,1.9-1.7c1.6,1.1,3.5,1.7,5.4,1.7c5.2,0,9.4-4.1,9.4-9.2C104.3,29.8,100.1,25.7,94.9,25.7z M46.3,29.5
		c-3,0-5.5,2.4-5.5,5.4c0,3,2.5,5.4,5.5,5.4c3,0,5.5-2.4,5.5-5.4C51.8,31.9,49.4,29.5,46.3,29.5z M46.3,44.1c-5.2,0-9.4-4.1-9.4-9.2
		c0-5.1,4.2-9.2,9.4-9.2c5.2,0,9.4,4.1,9.4,9.2C55.7,40,51.5,44.1,46.3,44.1z M75,29.5c-3.1,0-5.5,2.4-5.5,5.4c0,3,2.5,5.4,5.5,5.4
		c3.1,0,5.5-2.4,5.5-5.4C80.5,31.9,78,29.5,75,29.5z M75,44.1c-5.2,0-9.4-4.1-9.4-9.2c0-5.1,4.2-9.2,9.4-9.2s9.4,4.1,9.4,9.2
		C84.4,40,80.2,44.1,75,44.1z M63.6,27h-1.1v-4.2c0-1-0.8-1.8-1.9-1.8h0c-1,0-1.9,0.8-1.9,1.8V27h-1.1c-1,0-1.9,0.8-1.9,1.8v0
		c0,1,0.8,1.8,1.9,1.8h1.1v8.9c0,1.3,0.3,2.8,1.2,3.7c0.6,0.6,2.4,1.2,3.6,0c1-1,0.4-2.5-0.5-2.8c-0.3-0.1-0.4-0.6-0.4-1.2v-8.7h1.1
		c1,0,1.9-0.8,1.9-1.8v0C65.5,27.8,64.7,27,63.6,27z"/>
</g>
<g id="Calque_2">
	<g>
		<path class="st1" d="M105.1,33.2c0,0-0.9-2.1-2.9-2.6s-2.6,0.9-2.7,3.1s0.8,3.7,1.6,4.7s2.4,2.9,3.8,2.6s2.2-1.8,2.2-1.8"/>
		<g>
			<path d="M103.8,33.9c0,0-0.5-0.4-1-0.8c-0.3-0.2-0.5-0.3-0.7-0.4c-0.2-0.1-0.4-0.2-0.4-0.2s0.2,0,0.4,0.1
				c0.2,0.1,0.6,0.2,0.8,0.4c0.3,0.2,0.5,0.4,0.7,0.6C103.7,33.8,103.8,33.9,103.8,33.9z"/>
		</g>
		<g>
			<path d="M103.6,35.9c0,0-0.1,0.3-0.1,0.6c0,0.1,0.1,0.3,0.1,0.4c0.1,0.1,0.1,0.2,0.1,0.2c0,0-0.1,0-0.2-0.1
				c-0.1-0.1-0.2-0.3-0.2-0.4c0-0.2,0.1-0.4,0.1-0.5C103.5,35.9,103.6,35.9,103.6,35.9z"/>
		</g>
		<g>
			<path d="M102.9,38.4c0,0,0.3,0.2,0.5,0.2c0.1,0,0.2,0,0.3-0.1c0.1,0,0.2-0.1,0.2-0.1s0,0.1-0.1,0.2c-0.1,0.1-0.2,0.2-0.4,0.2
				c-0.2,0-0.4-0.1-0.4-0.3C102.9,38.5,102.9,38.4,102.9,38.4z"/>
		</g>
		<path class="st1" d="M127.1,30.4c-0.5-0.4-2.3,0-2.4,0.1c-0.1-0.7-0.4-1.2-0.8-1.6c0.1,0,1.3-0.5,1.3-1.3c0-0.5-0.5-1.4-1.8-2.2
			c0-0.4-0.3-1.5-2.5-2.5c-2.9-1.2-3.6-1.8-3.6-1.8s1.4-1.3,2.1-1.1c0,0-2.1-0.2-3.3,0.4c0,0,1.8-1.3,2.1-1.4c0,0-3.5,0.7-5.6,2.7
			c0,0-1-0.1-2.3,0.6s-5.2,2.8-5.9,5.1s0.4,3.4,0.8,6s0.4,3.9,0.2,4.8l2.8,2c0.3,0.9,0.8,1.9,1.3,3c1.2,2.8,3.7,5.9,6.4,6.4
			s4.5-1.5,5.6-3c1-1.4,2.1-4.2,2.2-4.4c1.2-0.5,1.9-1.2,2.4-1.9c0.7-1.1-0.1-3.1-1.1-3.7s0,0,0,0s1.6-2.2,2.2-3.9
			C127.5,31.9,127.6,30.9,127.1,30.4z"/>
		<path class="st2" d="M118.2,18.9c0,0-3.5,0.7-5.6,2.7c0,0-1-0.1-2.3,0.6s-5.2,2.8-5.9,5.1s0.4,3.4,0.8,6s0.4,3.9,0.2,4.8l2.9,2
			l1.7-6.7l13.5-7.9c0,0,0.4-1.4-2.5-2.7s-3.6-1.8-3.6-1.8s1.4-1.3,2.1-1.1c0,0-2.1-0.2-3.3,0.4C116.1,20.3,117.9,19,118.2,18.9z"/>
		<path class="st1" d="M123.9,28.9c0,0,1.4-0.4,1.4-1.3s-1.3-2.9-5.9-3.3c-7.6-0.7-11.2,4.2-11.2,4.2s-0.3,1.9,0.1,3.4
			s1.3,3.2,1.3,3.2"/>
		<path class="st1" d="M111.8,35.6c0,0-2.9-1.3-3.8,0.7s0.2,4,1.5,6.8s3.7,5.9,6.4,6.4s4.5-1.5,5.6-3s2.2-4.4,2.2-4.4"/>
		<path class="st1" d="M110.3,37c0,0,0.3,2.8,2.8,4.2s6,1.7,8.5,1.4s3.8-1.4,4.5-2.4s-0.1-3.1-1.1-3.7s-2.9-1.8-2.9-1.8"/>
		<path class="st3" d="M115.3,34.4c0.9-0.8,1.4-1.8,1.4-3.6s-1.1-2.6-2-3c-1.4-0.6-3.6,0.7-4.2,2s-0.7,3,0.4,4.1
			S113.5,36.1,115.3,34.4z"/>
		<path class="st2" d="M115.3,34.4c0.8-0.6,1.2-1.9,0.4-3.1s-1.5-1.2-2.1-0.9s-2.1,1.6-1.9,2.9s0.8,1.7,1.5,1.9
			S115.1,34.6,115.3,34.4z"/>
		<path d="M114.6,34.8c0.6-0.3,1.4-1.8,1-2.3s-1.2-1-1.8-0.8s-1.3,1.7-1.1,2.3S113.2,35.5,114.6,34.8z"/>
		<path class="st3" d="M120.9,33.6c-0.7-1.1-1-2.1-0.8-3.2c0.3-1.2,1.2-2.5,2.5-2.2s2,1.4,2.1,3.1s-0.1,3.3-0.9,3.6
			S121.9,35,120.9,33.6z"/>
		<path class="st2" d="M122.1,34.7c-1.6-0.7-1.4-2-1.1-3s0.9-1.4,1.7-1s1.4,1.1,1.2,2.4S122.9,35.1,122.1,34.7z"/>
		<path d="M122.4,31.9c-0.7-0.1-0.8,1.1-0.6,1.9s0.6,0.9,1.1,0.8s0.6-1,0.5-1.6S123.1,31.9,122.4,31.9z"/>
		<path class="st4" d="M124.8,30.4c0,0,1.8-0.4,2.3,0s0.4,1.4,0.2,2.1c-0.6,1.8-2.2,3.8-2.2,3.8"/>
		<path class="st4" d="M111,37c0,0-1.1-0.7-2.1,0.5"/>
		<path class="st5" d="M113.4,44c0,0,0.8-1,1.7-1s1.9,0.6,2.3,1.5c0,0-0.9-1.4-0.5-1.4s3.1,0.6,2.6,2.2c0,0-0.5,1-1.6,0.8
			C116.7,46,114.1,44.9,113.4,44"/>
		<path class="st4" d="M114.2,47.1c0,0,2.1,1.8,4.6,0.3"/>
		<path class="st1" d="M121.4,35.4c0,0,1.4-1.1-0.1-1.5s-4-0.1-4.5,0.6c-0.3,0.4,0.8,0.9,0.8,0.9"/>
		<path class="st6" d="M112.1,44.1c0,0-0.4-1,0.8-0.2s2.4,1.4,4.8,1.9s4.8-2.4,4.8-2.4s-3,4.3-5.6,3.6S113.4,45.4,112.1,44.1z"/>
		<path class="st4" d="M110.3,37c0,0-0.8,0.4-0.8,1.5s0.1,2.9,2.5,5.6s3.5,3.1,5.8,2.9s4.8-3.7,5.1-4.6"/>
		<path class="st4" d="M112.1,44.1c-0.1-0.4-0.1-0.6,0.2-0.5s1.8,1.1,3.2,1.6s3.4,1.7,6.4-1.2"/>
		<g>
			<path d="M118.5,34.6c0,0,0,0,0.1,0c0.1,0,0.1,0.1,0.2,0.1c0,0,0.1,0.1,0.1,0.1c0,0,0.1,0.1,0.1,0.1s0,0-0.1,0
				c-0.1,0-0.2,0-0.3-0.1c-0.1-0.1-0.1-0.1-0.1-0.2C118.5,34.6,118.5,34.6,118.5,34.6z"/>
		</g>
		<g>
			<path d="M120.7,34.6C120.7,34.6,120.7,34.6,120.7,34.6c0,0.1-0.1,0.2-0.1,0.2c0,0,0,0-0.1,0c0,0-0.1,0-0.1,0c0,0-0.1,0-0.1-0.1
				c0-0.1,0-0.1,0.1-0.2C120.5,34.5,120.6,34.5,120.7,34.6C120.7,34.5,120.7,34.6,120.7,34.6z"/>
		</g>
		<path d="M110.3,37c0,0,0.3,2.8,2.8,4.2s6,1.7,8.5,1.4c0.5-0.1,0.9-0.1,1.3-0.2c0,0-1.3,2.7-3.4,3c0,0,0.4-1.1-0.9-1.8
			s-2-0.9-1.9-0.2c0,0-1.1-0.4-1.9-0.4s-1.5,1.1-1.5,1.1s-0.9-0.5-1.1-0.5s-0.5,0.1-0.5,0.1s-2.2-2.1-2.2-4.4S110.3,37,110.3,37z"/>
		<path class="st7" d="M124.9,26.4c0,0,0.5,1-0.7,1c-1.2,0-2.1-0.9-3.4-0.5c-1.3,0.5-1.2,3.5-0.9,4.3c0,0,0.7-3.7,2.9-3
			c1.5,0.4,1.1,0.8,1.1,0.8s1.5-0.7,1.5-1.4C125.4,27,124.9,26.4,124.9,26.4z"/>
		<path class="st7" d="M124.8,31c0,0,0.9-0.2,1.5-0.2c0.9,0.1,1.2,0.5,1.2,0.5s-0.4,1.8-1.7,3.6c-1.3,1.8-1,1.3-1,1.3
			s1.2,1.2,1.3,2.3c0.2,1.5-1,3.2-2.6,3.5c0,0-1.1,3.4-2.8,5.3s-3.5,2.1-3.5,2.1s0.5-0.4,0.1-0.8c-0.4-0.4-1.4-0.1-1.9-0.5
			c-0.5-0.3-1.2-1.1-1.2-1.1s1.9,0.8,3.1,0.8c1.2-0.1,2.2-0.4,2.3-0.9c0.1-0.5,0-0.9,0-0.9s2.1-1.4,3.2-3.7c0,0-1.5,0.6-2,0.3
			c0,0,1.2-1.3,1.2-3.1c0.1-1.8-0.6-3.2-0.8-3.7c-0.2-0.4,0.3-0.8,0.5-1.1s0-0.7,0-0.7s0.8,0.7,1.4,0.5s1.7-0.8,1.8-2
			C124.9,31.5,124.8,31,124.8,31z"/>
		<path class="st7" d="M102.4,34.6c0,0,0.7,0.8,1.1,0.5c0.4-0.3,0.6-0.9-0.1-1.5c-0.7-0.7-1.7-1.5-2.5-1c-0.8,0.5-0.5,2.8,0,4
			c0.5,1.2,0.9,1,1.1,1s0.7,0.5,0.8,0.8s0.3,0.5,0.7,0.5c0.4,0,0.8-0.6,0.4-1.1s-0.4,0-1-0.9S102.3,35.2,102.4,34.6z"/>
		<path class="st8" d="M118.8,20.1c0,0-2.5,1.2-2.3,1.5c0.2,0.3,0.9,0.3,1.6,0.5c0.7,0.2,2.3,1.6,2.6,2.4c0,0,2.2,0.6,2.8,1
			c0,0,0.8-0.8-1.6-2.1c-2.3-1.3-3.8-2-4.1-2.1S117.2,20.8,118.8,20.1z"/>
		<path class="st8" d="M121,33.6c0,0-1.1-0.9-1.2-2c0-1,1.2-3.7,3-3.5s2.1,2.2,2.1,3.5c0,1.3-0.4,2.8-0.8,3c-0.4,0.2-1.6,0.2-1.8,0
			S121,33.6,121,33.6z"/>
		<polygon class="st6" points="113,31.2 113.5,31.9 113.4,32 112.7,31.4 		"/>
		<g>
			<path class="st6" d="M113.7,32.3l0.2,0.1l-0.1,0.2c-0.1,0.1-0.2,0.1-0.2,0c-0.1-0.1-0.1-0.2,0-0.2
				C113.6,32.3,113.6,32.2,113.7,32.3z"/>
		</g>
		<g>
			<path class="st6" d="M121.8,31.6l-0.1,0.3l-0.2-0.3c0-0.1,0-0.1,0-0.2C121.7,31.4,121.7,31.4,121.8,31.6
				C121.8,31.5,121.8,31.5,121.8,31.6z"/>
		</g>
		<path d="M128.6,35.2"/>
	</g>
</g>
<g id="Calque_3">
</g>
</svg>
