# Blender v2.78 (sub 0) OBJ File: ''
# www.blender.org
mtllib inside_mug.mtl
o Porcelin_001_Porcelin.001
v 2.982995 0.321813 -0.258699
v 2.939996 0.321813 0.232991
v 2.939996 6.832600 0.232994
v 2.982995 6.832600 -0.258696
v 2.812250 0.321813 0.709741
v 2.812250 6.832600 0.709744
v 2.603646 0.321813 1.157063
v 2.603646 6.832600 1.157066
v 2.320554 0.321813 1.561370
v 2.320554 6.832600 1.561373
v 1.971549 0.321813 1.910372
v 1.971549 6.832600 1.910375
v 1.567244 0.321813 2.193462
v 1.567244 6.832600 2.193465
v 1.119920 0.321813 2.402066
v 1.119920 6.832600 2.402069
v 0.643172 0.321813 2.529812
v 0.643172 6.832600 2.529815
v 0.151484 0.321813 2.572811
v 0.151484 6.832600 2.572814
v -0.340204 0.321813 2.529812
v -0.340204 6.832600 2.529815
v -0.816952 0.321813 2.402066
v -0.816952 6.832600 2.402069
v -1.264277 0.321813 2.193462
v -1.264277 6.832600 2.193465
v -1.668581 0.321813 1.910372
v -1.668581 6.832600 1.910375
v -2.017586 0.321813 1.561368
v -2.017586 6.832600 1.561371
v -2.300675 0.321813 1.157060
v -2.300675 6.832600 1.157063
v -2.509280 0.321813 0.709736
v -2.509280 6.832600 0.709739
v -2.637026 0.321813 0.232988
v -2.637026 6.832600 0.232991
v -2.680024 0.321813 -0.258700
v -2.680024 6.832600 -0.258697
v -2.637026 0.321813 -0.750389
v -2.637026 6.832600 -0.750386
v -2.509280 0.321813 -1.227136
v -2.509280 6.832600 -1.227133
v -2.300675 0.321813 -1.674461
v -2.300675 6.832603 -1.674458
v -2.017586 0.321813 -2.078765
v -2.017586 6.832603 -2.078762
v -1.668581 0.321813 -2.427770
v -1.668581 6.832603 -2.427767
v -1.264274 0.321813 -2.710860
v -1.264274 6.832603 -2.710857
v -0.816952 0.321813 -2.919464
v -0.816952 6.832603 -2.919461
v -0.340202 0.321813 -3.047210
v -0.340202 6.832603 -3.047207
v 0.151485 0.321813 -3.090209
v 0.151485 6.832603 -3.090206
v 0.643175 0.321813 -3.047210
v 0.643175 6.832603 -3.047207
v 1.119923 0.321813 -2.919464
v 1.119923 6.832603 -2.919461
v 1.567244 0.321813 -2.710860
v 1.567244 6.832603 -2.710857
v 1.971552 0.321813 -2.427770
v 1.971552 6.832603 -2.427767
v 2.320556 0.321813 -2.078765
v 2.320556 6.832603 -2.078762
v 2.603646 0.321813 -1.674458
v 2.603646 6.832603 -1.674455
v 2.812250 0.321813 -1.227136
v 2.812250 6.832600 -1.227133
v 2.939996 0.321813 -0.750386
v 2.939996 6.832600 -0.750383
v 0.151485 0.321813 -0.258699
v 1.159179 0.321813 -0.081015
v 1.174725 0.321813 -0.258699
v 1.113017 0.321813 0.091270
v 1.037636 0.321813 0.252921
v 0.935332 0.321813 0.399028
v 0.809210 0.321813 0.525148
v 0.663105 0.321813 0.627454
v 0.501454 0.321813 0.702833
v 0.329168 0.321813 0.748995
v 0.151485 0.321813 0.764541
v -0.026199 0.321813 0.748995
v -0.198483 0.321813 0.702833
v -0.360135 0.321813 0.627452
v -0.506242 0.321813 0.525148
v -0.632362 0.321813 0.399026
v -0.734668 0.321813 0.252921
v -0.810047 0.321813 0.091270
v -0.856208 0.321813 -0.081016
v -0.871755 0.321813 -0.258699
v -0.856208 0.321813 -0.436383
v -0.810047 0.321813 -0.608667
v -0.734666 0.321813 -0.770319
v -0.632362 0.321813 -0.916424
v -0.506240 0.321813 -1.042546
v -0.360135 0.321813 -1.144850
v -0.198483 0.321813 -1.220231
v -0.026198 0.321813 -1.266392
v 0.151485 0.321813 -1.281939
v 0.329169 0.321813 -1.266392
v 0.501454 0.321813 -1.220231
v 0.663105 0.321813 -1.144850
v 0.809210 0.321813 -1.042546
v 0.935332 0.321813 -0.916424
v 1.037636 0.321813 -0.770319
v 1.113017 0.321813 -0.608667
v 1.159179 0.321813 -0.436383
v 3.174568 6.832600 0.274357
v 3.221205 6.832600 -0.258696
v 3.036067 6.832600 0.791212
v 2.809931 6.832600 1.276166
v 2.503027 6.832600 1.714483
v 2.124662 6.832600 2.092846
v 1.686343 6.832600 2.399750
v 1.201391 6.832600 2.625909
v 0.684534 6.832600 2.764387
v 0.151484 6.832600 2.811024
v -0.381568 6.832600 2.764387
v -0.898423 6.832600 2.625886
v -1.383375 6.832600 2.399750
v -1.821694 6.832600 2.092846
v -2.200057 6.832600 1.714481
v -2.506960 6.832600 1.276162
v -2.733119 6.832600 0.791210
v -2.871598 6.832600 0.274353
v -2.918235 6.832600 -0.258697
v -2.871598 6.832600 -0.791749
v -2.733096 6.832600 -1.308604
v -2.506960 6.832603 -1.793556
v -2.200057 6.832603 -2.231876
v -1.821692 6.832603 -2.610238
v -1.383375 6.832603 -2.917142
v -0.898420 6.832603 -3.143300
v -0.381566 6.832603 -3.281779
v 0.151485 6.832603 -3.328416
v 0.684536 6.832603 -3.281779
v 1.201391 6.832603 -3.143300
v 1.686345 6.832603 -2.917142
v 2.124662 6.832603 -2.610238
v 2.503027 6.832603 -2.231873
v 2.809931 6.832603 -1.793556
v 3.036090 6.832600 -1.308601
v 3.174568 6.832600 -0.791747
vt 0.2806 0.3952
vt 0.3025 0.3951
vt 0.3034 0.6933
vt 0.2815 0.6934
vt 0.3218 0.3950
vt 0.3227 0.6932
vt 0.6357 0.6690
vt 0.6163 0.6690
vt 0.6154 0.3708
vt 0.6347 0.3708
vt 0.5944 0.6691
vt 0.5935 0.3709
vt 0.5707 0.6692
vt 0.5698 0.3710
vt 0.5458 0.6692
vt 0.5449 0.3710
vt 0.5206 0.6693
vt 0.5197 0.3711
vt 0.4957 0.6694
vt 0.4948 0.3712
vt 0.4720 0.6695
vt 0.4711 0.3713
vt 0.4501 0.6695
vt 0.4492 0.3713
vt 0.4308 0.6696
vt 0.4299 0.3714
vt 0.6357 0.6702
vt 0.6550 0.6702
vt 0.6559 0.9684
vt 0.6366 0.9684
vt 0.6769 0.6701
vt 0.6778 0.9683
vt 0.7006 0.6700
vt 0.7015 0.9682
vt 0.7255 0.6699
vt 0.7264 0.9682
vt 0.7507 0.6699
vt 0.7516 0.9681
vt 0.7756 0.6698
vt 0.7765 0.9680
vt 0.7993 0.6697
vt 0.8002 0.9679
vt 0.8212 0.6696
vt 0.8221 0.9679
vt 0.8405 0.6696
vt 0.8415 0.9678
vt 0.8415 0.6690
vt 0.8221 0.6690
vt 0.8212 0.3708
vt 0.8405 0.3708
vt 0.8002 0.6691
vt 0.7993 0.3709
vt 0.7765 0.6692
vt 0.7756 0.3710
vt 0.7516 0.6692
vt 0.7507 0.3710
vt 0.7264 0.6693
vt 0.7255 0.3711
vt 0.7015 0.6694
vt 0.7006 0.3712
vt 0.6778 0.6695
vt 0.6769 0.3713
vt 0.6559 0.6695
vt 0.6550 0.3713
vt 0.6366 0.6696
vt 0.6357 0.3714
vt 0.1169 0.3957
vt 0.1363 0.3956
vt 0.1372 0.6938
vt 0.1179 0.6939
vt 0.1582 0.3955
vt 0.1591 0.6937
vt 0.1819 0.3955
vt 0.1828 0.6937
vt 0.2068 0.3954
vt 0.2077 0.6936
vt 0.2320 0.3953
vt 0.2329 0.6935
vt 0.2569 0.3952
vt 0.2578 0.6934
vt 0.5742 0.2264
vt 0.5313 0.1964
vt 0.5372 0.1894
vt 0.5267 0.2043
vt 0.5236 0.2129
vt 0.5220 0.2219
vt 0.5220 0.2310
vt 0.5236 0.2400
vt 0.5267 0.2486
vt 0.5313 0.2565
vt 0.5372 0.2635
vt 0.5442 0.2693
vt 0.5521 0.2739
vt 0.5606 0.2770
vt 0.5696 0.2786
vt 0.5788 0.2786
vt 0.5877 0.2770
vt 0.5963 0.2739
vt 0.6042 0.2693
vt 0.6112 0.2635
vt 0.6171 0.2565
vt 0.6216 0.2486
vt 0.6248 0.2400
vt 0.6263 0.2310
vt 0.6263 0.2219
vt 0.6248 0.2129
vt 0.6216 0.2043
vt 0.6171 0.1964
vt 0.6112 0.1894
vt 0.6042 0.1835
vt 0.5963 0.1790
vt 0.5877 0.1759
vt 0.5788 0.1743
vt 0.5696 0.1743
vt 0.5606 0.1759
vt 0.5521 0.1790
vt 0.5442 0.1835
vt 0.4555 0.1433
vt 0.4717 0.1240
vt 0.4429 0.1652
vt 0.4343 0.1889
vt 0.4299 0.2138
vt 0.4299 0.2391
vt 0.4343 0.2639
vt 0.4429 0.2877
vt 0.4555 0.3095
vt 0.4717 0.3289
vt 0.4911 0.3451
vt 0.5130 0.3577
vt 0.5367 0.3664
vt 0.5616 0.3708
vt 0.5868 0.3708
vt 0.6117 0.3664
vt 0.6354 0.3577
vt 0.6573 0.3451
vt 0.6766 0.3289
vt 0.6929 0.3095
vt 0.7055 0.2877
vt 0.7141 0.2639
vt 0.7185 0.2391
vt 0.7185 0.2138
vt 0.7141 0.1889
vt 0.7055 0.1652
vt 0.6929 0.1433
vt 0.6766 0.1240
vt 0.6573 0.1078
vt 0.6354 0.0951
vt 0.6117 0.0865
vt 0.5868 0.0821
vt 0.5616 0.0821
vt 0.5367 0.0865
vt 0.5130 0.0951
vt 0.4911 0.1078
vt 0.3635 0.1099
vt 0.3845 0.1275
vt 0.3758 0.1361
vt 0.3565 0.1199
vt 0.3398 0.0962
vt 0.3346 0.1073
vt 0.3141 0.0869
vt 0.3109 0.0986
vt 0.2871 0.0821
vt 0.2860 0.0943
vt 0.2597 0.0821
vt 0.2608 0.0943
vt 0.2328 0.0869
vt 0.2359 0.0986
vt 0.2070 0.0962
vt 0.2122 0.1073
vt 0.1833 0.1099
vt 0.1903 0.1199
vt 0.1624 0.1275
vt 0.1710 0.1361
vt 0.1448 0.1485
vt 0.1547 0.1555
vt 0.1311 0.1722
vt 0.1421 0.1773
vt 0.1217 0.1979
vt 0.1335 0.2011
vt 0.1169 0.2249
vt 0.1291 0.2259
vt 0.1169 0.2523
vt 0.1291 0.2512
vt 0.1217 0.2792
vt 0.1335 0.2761
vt 0.1311 0.3049
vt 0.1421 0.2998
vt 0.1448 0.3287
vt 0.1547 0.3217
vt 0.1624 0.3496
vt 0.1710 0.3410
vt 0.1833 0.3672
vt 0.1903 0.3572
vt 0.2070 0.3809
vt 0.2122 0.3699
vt 0.2328 0.3903
vt 0.2359 0.3785
vt 0.2597 0.3950
vt 0.2608 0.3829
vt 0.2871 0.3950
vt 0.2860 0.3829
vt 0.3141 0.3903
vt 0.3109 0.3785
vt 0.3398 0.3809
vt 0.3346 0.3699
vt 0.3635 0.3672
vt 0.3565 0.3572
vt 0.3845 0.3496
vt 0.3758 0.3410
vt 0.4021 0.3287
vt 0.3921 0.3217
vt 0.4158 0.3049
vt 0.4047 0.2998
vt 0.4251 0.2792
vt 0.4133 0.2761
vt 0.4299 0.2523
vt 0.4177 0.2512
vt 0.4299 0.2249
vt 0.4177 0.2259
vt 0.4251 0.1979
vt 0.4133 0.2011
vt 0.4158 0.1722
vt 0.4047 0.1773
vt 0.4021 0.1485
vt 0.3921 0.1555
vn -0.7257 0.6880 0.0000
vn -0.7147 0.6880 -0.1260
vn -0.6759 0.7273 -0.1191
vn -0.6864 0.7272 0.0000
vn -0.6819 0.6880 -0.2482
vn -0.6449 0.7273 -0.2347
vn -0.6285 0.6880 -0.3628
vn -0.5944 0.7273 -0.3432
vn -0.5559 0.6880 -0.4664
vn -0.5258 0.7273 -0.4412
vn -0.4664 0.6880 -0.5559
vn -0.4412 0.7273 -0.5258
vn -0.3628 0.6880 -0.6285
vn -0.3432 0.7272 -0.5944
vn -0.2482 0.6880 -0.6819
vn -0.2347 0.7273 -0.6449
vn -0.1260 0.6880 -0.7147
vn -0.1191 0.7273 -0.6759
vn 0.0000 0.6880 -0.7257
vn 0.0000 0.7272 -0.6864
vn 0.1260 0.6880 -0.7147
vn 0.1191 0.7273 -0.6759
vn 0.2482 0.6880 -0.6819
vn 0.2347 0.7273 -0.6449
vn 0.3628 0.6880 -0.6285
vn 0.3432 0.7273 -0.5944
vn 0.4664 0.6880 -0.5559
vn 0.4412 0.7273 -0.5258
vn 0.5559 0.6880 -0.4664
vn 0.5258 0.7273 -0.4412
vn 0.6285 0.6880 -0.3628
vn 0.5944 0.7272 -0.3432
vn 0.6819 0.6880 -0.2482
vn 0.6449 0.7273 -0.2347
vn 0.7147 0.6880 -0.1260
vn 0.6759 0.7273 -0.1191
vn 0.7257 0.6880 0.0000
vn 0.6864 0.7272 0.0000
vn 0.7147 0.6880 0.1260
vn 0.6759 0.7273 0.1191
vn 0.6819 0.6880 0.2482
vn 0.6449 0.7273 0.2347
vn 0.6285 0.6880 0.3628
vn 0.5944 0.7273 0.3432
vn 0.5559 0.6880 0.4664
vn 0.5258 0.7273 0.4412
vn 0.4664 0.6880 0.5559
vn 0.4412 0.7273 0.5258
vn 0.3628 0.6880 0.6285
vn 0.3432 0.7272 0.5944
vn 0.2482 0.6880 0.6819
vn 0.2347 0.7273 0.6449
vn 0.1260 0.6880 0.7147
vn 0.1191 0.7273 0.6759
vn 0.0000 0.6880 0.7257
vn 0.0000 0.7272 0.6864
vn -0.1260 0.6880 0.7147
vn -0.1191 0.7273 0.6759
vn -0.2482 0.6880 0.6819
vn -0.2347 0.7273 0.6449
vn -0.3628 0.6880 0.6285
vn -0.3432 0.7272 0.5944
vn -0.4664 0.6880 0.5559
vn -0.4412 0.7273 0.5258
vn -0.5559 0.6880 0.4664
vn -0.5258 0.7273 0.4412
vn -0.6285 0.6880 0.3628
vn -0.5944 0.7272 0.3432
vn -0.6819 0.6880 0.2482
vn -0.6449 0.7273 0.2347
vn -0.7147 0.6880 0.1260
vn -0.6759 0.7273 0.1191
vn 0.0000 1.0000 0.0000
g Porcelin_001_Porcelin.001_Porcelin_001_Porcelin.001_None
usemtl None
s 1
f 1/1/1 2/2/2 3/3/3
f 3/3/3 4/4/4 1/1/1
f 2/2/2 5/5/5 6/6/6
f 3/3/3 2/2/2 6/6/6
f 5/7/5 7/8/7 8/9/8
f 8/9/8 6/10/6 5/7/5
f 7/8/7 9/11/9 10/12/10
f 10/12/10 8/9/8 7/8/7
f 9/11/9 11/13/11 12/14/12
f 12/14/12 10/12/10 9/11/9
f 11/13/11 13/15/13 14/16/14
f 14/16/14 12/14/12 11/13/11
f 13/15/13 15/17/15 16/18/16
f 16/18/16 14/16/14 13/15/13
f 15/17/15 17/19/17 18/20/18
f 18/20/18 16/18/16 15/17/15
f 17/19/17 19/21/19 20/22/20
f 20/22/20 18/20/18 17/19/17
f 19/21/19 21/23/21 22/24/22
f 22/24/22 20/22/20 19/21/19
f 21/23/21 23/25/23 24/26/24
f 24/26/24 22/24/22 21/23/21
f 23/27/23 25/28/25 26/29/26
f 26/29/26 24/30/24 23/27/23
f 25/28/25 27/31/27 28/32/28
f 28/32/28 26/29/26 25/28/25
f 27/31/27 29/33/29 30/34/30
f 30/34/30 28/32/28 27/31/27
f 29/33/29 31/35/31 32/36/32
f 32/36/32 30/34/30 29/33/29
f 31/35/31 33/37/33 34/38/34
f 34/38/34 32/36/32 31/35/31
f 33/37/33 35/39/35 36/40/36
f 36/40/36 34/38/34 33/37/33
f 35/39/35 37/41/37 38/42/38
f 38/42/38 36/40/36 35/39/35
f 37/41/37 39/43/39 40/44/40
f 40/44/40 38/42/38 37/41/37
f 39/43/39 41/45/41 42/46/42
f 42/46/42 40/44/40 39/43/39
f 41/47/41 43/48/43 44/49/44
f 44/49/44 42/50/42 41/47/41
f 43/48/43 45/51/45 46/52/46
f 46/52/46 44/49/44 43/48/43
f 45/51/45 47/53/47 48/54/48
f 48/54/48 46/52/46 45/51/45
f 47/53/47 49/55/49 50/56/50
f 50/56/50 48/54/48 47/53/47
f 49/55/49 51/57/51 52/58/52
f 52/58/52 50/56/50 49/55/49
f 51/57/51 53/59/53 54/60/54
f 54/60/54 52/58/52 51/57/51
f 53/59/53 55/61/55 56/62/56
f 56/62/56 54/60/54 53/59/53
f 55/61/55 57/63/57 58/64/58
f 58/64/58 56/62/56 55/61/55
f 57/63/57 59/65/59 60/66/60
f 60/66/60 58/64/58 57/63/57
f 59/67/59 61/68/61 62/69/62
f 62/69/62 60/70/60 59/67/59
f 61/68/61 63/71/63 64/72/64
f 64/72/64 62/69/62 61/68/61
f 63/71/63 65/73/65 66/74/66
f 66/74/66 64/72/64 63/71/63
f 65/73/65 67/75/67 68/76/68
f 68/76/68 66/74/66 65/73/65
f 67/75/67 69/77/69 70/78/70
f 70/78/70 68/76/68 67/75/67
f 69/77/69 71/79/71 72/80/72
f 72/80/72 70/78/70 69/77/69
f 71/79/71 1/1/1 4/4/4
f 4/4/4 72/80/72 71/79/71
f 73/81/73 74/82/73 75/83/73
f 73/81/73 76/84/73 74/82/73
f 73/81/73 77/85/73 76/84/73
f 73/81/73 78/86/73 77/85/73
f 73/81/73 79/87/73 78/86/73
f 73/81/73 80/88/73 79/87/73
f 73/81/73 81/89/73 80/88/73
f 73/81/73 82/90/73 81/89/73
f 73/81/73 83/91/73 82/90/73
f 73/81/73 84/92/73 83/91/73
f 73/81/73 85/93/73 84/92/73
f 73/81/73 86/94/73 85/93/73
f 73/81/73 87/95/73 86/94/73
f 73/81/73 88/96/73 87/95/73
f 73/81/73 89/97/73 88/96/73
f 73/81/73 90/98/73 89/97/73
f 73/81/73 91/99/73 90/98/73
f 73/81/73 92/100/73 91/99/73
f 73/81/73 93/101/73 92/100/73
f 73/81/73 94/102/73 93/101/73
f 73/81/73 95/103/73 94/102/73
f 73/81/73 96/104/73 95/103/73
f 73/81/73 97/105/73 96/104/73
f 73/81/73 98/106/73 97/105/73
f 73/81/73 99/107/73 98/106/73
f 73/81/73 100/108/73 99/107/73
f 73/81/73 101/109/73 100/108/73
f 73/81/73 102/110/73 101/109/73
f 73/81/73 103/111/73 102/110/73
f 73/81/73 104/112/73 103/111/73
f 73/81/73 105/113/73 104/112/73
f 73/81/73 106/114/73 105/113/73
f 73/81/73 107/115/73 106/114/73
f 73/81/73 108/116/73 107/115/73
f 73/81/73 109/117/73 108/116/73
f 73/81/73 75/83/73 109/117/73
f 2/118/2 1/119/1 75/83/73
f 2/118/2 75/83/73 74/82/73
f 5/120/5 2/118/2 74/82/73
f 5/120/5 74/82/73 76/84/73
f 7/121/7 5/120/5 76/84/73
f 7/121/7 76/84/73 77/85/73
f 9/122/9 7/121/7 77/85/73
f 9/122/9 77/85/73 78/86/73
f 11/123/11 9/122/9 78/86/73
f 11/123/11 78/86/73 79/87/73
f 13/124/13 11/123/11 79/87/73
f 13/124/13 79/87/73 80/88/73
f 15/125/15 13/124/13 80/88/73
f 15/125/15 80/88/73 81/89/73
f 17/126/17 15/125/15 81/89/73
f 17/126/17 81/89/73 82/90/73
f 19/127/19 17/126/17 82/90/73
f 19/127/19 82/90/73 83/91/73
f 21/128/21 19/127/19 83/91/73
f 21/128/21 83/91/73 84/92/73
f 23/129/23 21/128/21 84/92/73
f 23/129/23 84/92/73 85/93/73
f 25/130/25 23/129/23 85/93/73
f 25/130/25 85/93/73 86/94/73
f 27/131/27 25/130/25 86/94/73
f 27/131/27 86/94/73 87/95/73
f 29/132/29 27/131/27 87/95/73
f 29/132/29 87/95/73 88/96/73
f 31/133/31 29/132/29 88/96/73
f 31/133/31 88/96/73 89/97/73
f 33/134/33 31/133/31 89/97/73
f 33/134/33 89/97/73 90/98/73
f 35/135/35 33/134/33 90/98/73
f 35/135/35 90/98/73 91/99/73
f 37/136/37 35/135/35 91/99/73
f 37/136/37 91/99/73 92/100/73
f 39/137/39 37/136/37 92/100/73
f 39/137/39 92/100/73 93/101/73
f 41/138/41 39/137/39 93/101/73
f 41/138/41 93/101/73 94/102/73
f 43/139/43 41/138/41 94/102/73
f 43/139/43 94/102/73 95/103/73
f 45/140/45 43/139/43 95/103/73
f 45/140/45 95/103/73 96/104/73
f 47/141/47 45/140/45 96/104/73
f 47/141/47 96/104/73 97/105/73
f 49/142/49 47/141/47 97/105/73
f 49/142/49 97/105/73 98/106/73
f 51/143/51 49/142/49 98/106/73
f 51/143/51 98/106/73 99/107/73
f 53/144/53 51/143/51 99/107/73
f 53/144/53 99/107/73 100/108/73
f 55/145/55 53/144/53 100/108/73
f 55/145/55 100/108/73 101/109/73
f 57/146/57 55/145/55 101/109/73
f 57/146/57 101/109/73 102/110/73
f 59/147/59 57/146/57 102/110/73
f 59/147/59 102/110/73 103/111/73
f 61/148/61 59/147/59 103/111/73
f 61/148/61 103/111/73 104/112/73
f 63/149/63 61/148/61 104/112/73
f 63/149/63 104/112/73 105/113/73
f 65/150/65 63/149/63 105/113/73
f 65/150/65 105/113/73 106/114/73
f 67/151/67 65/150/65 106/114/73
f 67/151/67 106/114/73 107/115/73
f 69/152/69 67/151/67 107/115/73
f 69/152/69 107/115/73 108/116/73
f 71/153/71 69/152/69 108/116/73
f 71/153/71 108/116/73 109/117/73
f 1/119/1 71/153/71 109/117/73
f 1/119/1 109/117/73 75/83/73
f 110/154/73 111/155/73 4/156/4
f 110/154/73 4/156/4 3/157/3
f 112/158/73 110/154/73 3/157/3
f 112/158/73 3/157/3 6/159/6
f 113/160/73 112/158/73 6/159/6
f 113/160/73 6/159/6 8/161/8
f 114/162/73 113/160/73 8/161/8
f 114/162/73 8/161/8 10/163/10
f 115/164/73 114/162/73 10/163/10
f 115/164/73 10/163/10 12/165/12
f 116/166/73 115/164/73 12/165/12
f 116/166/73 12/165/12 14/167/14
f 117/168/73 116/166/73 14/167/14
f 117/168/73 14/167/14 16/169/16
f 118/170/73 117/168/73 16/169/16
f 118/170/73 16/169/16 18/171/18
f 119/172/73 118/170/73 18/171/18
f 119/172/73 18/171/18 20/173/20
f 120/174/73 119/172/73 20/173/20
f 120/174/73 20/173/20 22/175/22
f 121/176/73 120/174/73 22/175/22
f 121/176/73 22/175/22 24/177/24
f 122/178/73 121/176/73 24/177/24
f 122/178/73 24/177/24 26/179/26
f 123/180/73 122/178/73 26/179/26
f 123/180/73 26/179/26 28/181/28
f 124/182/73 123/180/73 28/181/28
f 124/182/73 28/181/28 30/183/30
f 125/184/73 124/182/73 30/183/30
f 125/184/73 30/183/30 32/185/32
f 126/186/73 125/184/73 32/185/32
f 126/186/73 32/185/32 34/187/34
f 127/188/73 126/186/73 34/187/34
f 127/188/73 34/187/34 36/189/36
f 128/190/73 127/188/73 36/189/36
f 128/190/73 36/189/36 38/191/38
f 129/192/73 128/190/73 38/191/38
f 129/192/73 38/191/38 40/193/40
f 130/194/73 129/192/73 40/193/40
f 130/194/73 40/193/40 42/195/42
f 131/196/73 130/194/73 42/195/42
f 131/196/73 42/195/42 44/197/44
f 132/198/73 131/196/73 44/197/44
f 132/198/73 44/197/44 46/199/46
f 133/200/73 132/198/73 46/199/46
f 133/200/73 46/199/46 48/201/48
f 134/202/73 133/200/73 48/201/48
f 134/202/73 48/201/48 50/203/50
f 135/204/73 134/202/73 50/203/50
f 135/204/73 50/203/50 52/205/52
f 136/206/73 135/204/73 52/205/52
f 136/206/73 52/205/52 54/207/54
f 137/208/73 136/206/73 54/207/54
f 137/208/73 54/207/54 56/209/56
f 138/210/73 137/208/73 56/209/56
f 138/210/73 56/209/56 58/211/58
f 139/212/73 138/210/73 58/211/58
f 139/212/73 58/211/58 60/213/60
f 140/214/73 139/212/73 60/213/60
f 140/214/73 60/213/60 62/215/62
f 141/216/73 140/214/73 62/215/62
f 141/216/73 62/215/62 64/217/64
f 142/218/73 141/216/73 64/217/64
f 142/218/73 64/217/64 66/219/66
f 143/220/73 142/218/73 66/219/66
f 143/220/73 66/219/66 68/221/68
f 144/222/73 143/220/73 68/221/68
f 144/222/73 68/221/68 70/223/70
f 145/224/73 144/222/73 70/223/70
f 145/224/73 70/223/70 72/225/72
f 111/155/73 145/224/73 72/225/72
f 111/155/73 72/225/72 4/156/4
